<?xml version="1.0" standalone="no"?>
<!DOCTYPE svg PUBLIC "-//W3C//DTD SVG 20010904//EN"
 "http://www.w3.org/TR/2001/REC-SVG-20010904/DTD/svg10.dtd">
<svg version="1.0" xmlns="http://www.w3.org/2000/svg"
 width="300.000000pt" height="300.000000pt" viewBox="0 0 300.000000 300.000000"
 preserveAspectRatio="xMidYMid meet">
<metadata>
Created by potrace 1.11, written by Peter Selinger 2001-2013
</metadata>
<g transform="translate(0.000000,300.000000) scale(0.100000,-0.100000)"
fill="#000000" stroke="none">
<path d="M853 1928 c-98 -55 -200 -112 -228 -127 -27 -15 -70 -39 -95 -53 -25
-14 -72 -40 -105 -58 -33 -18 -121 -67 -195 -109 -74 -42 -156 -87 -182 -101
-26 -13 -45 -28 -42 -32 2 -4 30 -7 62 -6 31 0 148 -1 259 -2 l201 -2 139 72
c155 82 242 128 324 172 l55 31 225 -98 c123 -53 253 -111 289 -127 36 -17 76
-34 90 -40 25 -10 646 -15 656 -6 2 3 -28 19 -68 36 -40 16 -111 48 -158 70
-109 52 -330 152 -334 152 -2 0 -50 22 -107 49 -57 26 -142 65 -189 86 -132
59 -321 146 -382 175 l-36 17 -179 -99z"/>
<path d="M1005 1561 c-27 -15 -90 -49 -140 -75 -49 -27 -137 -74 -195 -106
-135 -74 -259 -140 -288 -156 -13 -6 -24 -14 -25 -18 -1 -3 39 -25 88 -49 l90
-44 130 68 c72 37 164 86 205 109 41 22 103 55 137 72 l62 32 88 -38 c48 -21
205 -90 349 -152 l260 -114 182 0 c100 0 182 3 182 8 0 4 -17 15 -37 24 -44
19 -333 149 -413 185 -30 14 -127 58 -215 98 -88 40 -180 82 -205 93 -25 11
-80 36 -124 56 -43 20 -79 36 -80 35 0 0 -23 -12 -51 -28z"/>
<path d="M45 1359 c-4 -6 229 -119 246 -119 6 0 29 11 52 24 23 13 73 40 112
60 38 20 67 37 65 37 -18 5 -473 3 -475 -2z"/>
<path d="M1690 1358 c0 -5 4 -8 9 -8 5 0 144 -59 307 -130 l298 -130 305 2
305 3 -185 84 c-101 46 -215 99 -254 116 -158 73 -120 68 -468 69 -174 0 -317
-2 -317 -6z"/>
<path d="M945 1279 c-60 -33 -157 -85 -215 -116 -157 -84 -152 -73 -59 -118
l80 -39 82 42 c45 23 118 62 162 86 l80 43 80 -34 c44 -19 88 -39 97 -44 10
-5 95 -9 190 -8 l173 0 -65 32 c-36 18 -92 44 -125 59 -114 51 -190 86 -268
122 -43 20 -84 36 -90 36 -7 -1 -61 -28 -122 -61z"/>
</g>
</svg>
